<svg id='Automobile_24' width='24' height='24' viewBox='0 0 24 24' xmlns='http://www.w3.org/2000/svg' xmlns:xlink='http://www.w3.org/1999/xlink'><rect width='24' height='24' stroke='none' fill='#000000' opacity='0'/>


<g transform="matrix(0.42 0 0 0.42 12 12)" >
<g style="" >
<g transform="matrix(1 0 0 1 -1 13.5)" >
<rect style="stroke: none; stroke-width: 1; stroke-dasharray: none; stroke-linecap: butt; stroke-dashoffset: 0; stroke-linejoin: miter; stroke-miterlimit: 4; fill: rgb(28,28,28); fill-rule: nonzero; opacity: 1;" x="-20" y="-4.5" rx="0" ry="0" width="40" height="9" />
</g>
<g transform="matrix(1 0 0 1 0 3.5)" >
<linearGradient id="SVGID_UV0t5RLqed3~pVNI22whDa_1" gradientUnits="userSpaceOnUse" gradientTransform="matrix(1 0 0 1 0 0)" x1="23.834" y1="22.81" x2="23.932" y2="32.704">
<stop offset="0%" style="stop-color:rgb(246,131,129);stop-opacity: 1"/>
<stop offset="100%" style="stop-color:rgb(229,30,37);stop-opacity: 1"/>
</linearGradient>
<path style="stroke: none; stroke-width: 1; stroke-dasharray: none; stroke-linecap: butt; stroke-dashoffset: 0; stroke-linejoin: miter; stroke-miterlimit: 4; fill: url(#SVGID_UV0t5RLqed3~pVNI22whDa_1); fill-rule: nonzero; opacity: 1;" transform=" translate(-24, -27.5)" d="M 46 37.058 L 46 28.848 C 46 27.788 45.22 26.89 44.17 26.741999999999997 L 39.809000000000005 26.125999999999998 L 37.29600000000001 15.592999999999998 C 37.038000000000004 14.570999999999998 36.12400000000001 13.780999999999999 34.86200000000001 13.624999999999998 C 27.969 13.125 22.812 13 16.878 13 C 15.766 13 14.789 13.737 14.484 14.806000000000001 L 11.256 25.938000000000002 L 10.929 26 C 4.929 27 2 30 2 35 L 2 37.058 C 1.432 37.191 1 37.677 1 38.286 L 1 40.715 C 1 41.324000000000005 1.432 41.81 2 41.943000000000005 L 2 42 L 2.286 42 L 4 42 L 4.349 42 C 4.127 41.374 4 40.702 4 40 C 4 36.686 6.686 34 10 34 C 13.314 34 16 36.686 16 40 C 16 40.702 15.873 41.374 15.651 42 L 31.349 42 C 31.127 41.374 31 40.702 31 40 C 31 36.686 33.686 34 37 34 C 40.314 34 43 36.686 43 40 C 43 40.702 42.873 41.374 42.651 42 L 43 42 L 44.714 42 C 45.388 42 46.612 41.659 46.753 40.729 L 47 38.286 C 47 37.677 46.568 37.191 46 37.058 z" stroke-linecap="round" />
</g>
<g transform="matrix(1 0 0 1 1.11 3.43)" >
<linearGradient id="SVGID_UV0t5RLqed3~pVNI22whDb_2" gradientUnits="userSpaceOnUse" gradientTransform="matrix(1 0 0 1 0 0)" x1="25.082" y1="26.388" x2="25.107" y2="28.835">
<stop offset="0%" style="stop-color:rgb(247,143,143);stop-opacity: 1"/>
<stop offset="100%" style="stop-color:rgb(244,67,54);stop-opacity: 1"/>
</linearGradient>
<path style="stroke: none; stroke-width: 1; stroke-dasharray: none; stroke-linecap: butt; stroke-dashoffset: 0; stroke-linejoin: miter; stroke-miterlimit: 4; fill: url(#SVGID_UV0t5RLqed3~pVNI22whDb_2); fill-rule: nonzero; opacity: 1;" transform=" translate(-25.11, -27.43)" d="M 46 28.848 C 46 27.788 45.22 26.89 44.17 26.741999999999997 L 39.894000000000005 26.137999999999998 C 36.13400000000001 25.781999999999996 13.274000000000004 25.813 10.988000000000007 25.999999999999996 L 10.992000000000006 25.987999999999996 L 10.929 26 C 7.929 26.5 5.697 27.5 4.214 29 L 46 29 L 46 28.848 z" stroke-linecap="round" />
</g>
<g transform="matrix(1 0 0 1 1 8.91)" >
<path style="stroke: none; stroke-width: 1; stroke-dasharray: none; stroke-linecap: butt; stroke-dashoffset: 0; stroke-linejoin: miter; stroke-miterlimit: 4; fill: rgb(198,29,30); fill-rule: nonzero; opacity: 1;" transform=" translate(-25, -32.91)" d="M 31.5 25.813 L 31.5 32.917 C 31.5 33.114000000000004 31.377 33.28 31.229 33.429 C 29.416 35.271 28.822 36.077000000000005 28.528 38.894000000000005 C 28.491 39.245000000000005 28.238 39.50000000000001 27.927 39.50000000000001 L 19.104 39.50000000000001 C 18.771 39.50000000000001 18.5 39.22200000000001 18.5 38.88100000000001 L 18.5 25.813 L 18 25.813 L 18 38.882 C 18 39.499 18.494 40 19.104 40 L 27.927 40 C 28.509999999999998 40 28.964 39.533 29.026 38.946 C 29.313 36.199999999999996 30.084 35.271 31.525 33.833 C 31.78 33.577 32 33.282 32 32.917 L 32 25.813000000000002 L 31.5 25.813000000000002 z" stroke-linecap="round" />
</g>
<g transform="matrix(1 0 0 1 -0.5 13.5)" >
<linearGradient id="SVGID_UV0t5RLqed3~pVNI22whDc_3" gradientUnits="userSpaceOnUse" gradientTransform="matrix(1 0 0 1 -23.5 -37.5)" x1="23.5" y1="37.931" x2="23.5" y2="34.332">
<stop offset="0%" style="stop-color:rgb(255,255,255);stop-opacity: 0"/>
<stop offset="100%" style="stop-color:rgb(255,255,255);stop-opacity: 1"/>
</linearGradient>
<rect style="stroke: none; stroke-width: 1; stroke-dasharray: none; stroke-linecap: butt; stroke-dashoffset: 0; stroke-linejoin: miter; stroke-miterlimit: 4; fill: url(#SVGID_UV0t5RLqed3~pVNI22whDc_3); fill-rule: nonzero; opacity: 1;" x="-7.5" y="-0.5" rx="0" ry="0" width="15" height="1" />
</g>
<g transform="matrix(1 0 0 1 -14 16)" >
<radialGradient id="SVGID_UV0t5RLqed3~pVNI22whDd_4" gradientUnits="userSpaceOnUse" gradientTransform="matrix(1 0 0 1 -10 -40)" cx="10" cy="40" r="5" fx="10" fy="40">
<stop offset="0%" style="stop-color:rgb(102,102,102);stop-opacity: 1"/>
<stop offset="51.300000000000004%" style="stop-color:rgb(100,100,100);stop-opacity: 1"/>
<stop offset="69.8%" style="stop-color:rgb(94,94,93);stop-opacity: 1"/>
<stop offset="82.89999999999999%" style="stop-color:rgb(82,82,82);stop-opacity: 1"/>
<stop offset="93.5%" style="stop-color:rgb(66,66,65);stop-opacity: 1"/>
<stop offset="100%" style="stop-color:rgb(51,51,50);stop-opacity: 1"/>
</radialGradient>
<circle style="stroke: none; stroke-width: 1; stroke-dasharray: none; stroke-linecap: butt; stroke-dashoffset: 0; stroke-linejoin: miter; stroke-miterlimit: 4; fill: url(#SVGID_UV0t5RLqed3~pVNI22whDd_4); fill-rule: nonzero; opacity: 1;" cx="0" cy="0" r="5" />
</g>
<g transform="matrix(1 0 0 1 13 16)" >
<radialGradient id="SVGID_UV0t5RLqed3~pVNI22whDe_5" gradientUnits="userSpaceOnUse" gradientTransform="matrix(1 0 0 1 -37 -40)" cx="37" cy="40" r="5" fx="37" fy="40">
<stop offset="0%" style="stop-color:rgb(102,102,102);stop-opacity: 1"/>
<stop offset="51.300000000000004%" style="stop-color:rgb(100,100,100);stop-opacity: 1"/>
<stop offset="69.8%" style="stop-color:rgb(94,94,93);stop-opacity: 1"/>
<stop offset="82.89999999999999%" style="stop-color:rgb(82,82,82);stop-opacity: 1"/>
<stop offset="93.5%" style="stop-color:rgb(66,66,65);stop-opacity: 1"/>
<stop offset="100%" style="stop-color:rgb(51,51,50);stop-opacity: 1"/>
</radialGradient>
<circle style="stroke: none; stroke-width: 1; stroke-dasharray: none; stroke-linecap: butt; stroke-dashoffset: 0; stroke-linejoin: miter; stroke-miterlimit: 4; fill: url(#SVGID_UV0t5RLqed3~pVNI22whDe_5); fill-rule: nonzero; opacity: 1;" cx="0" cy="0" r="5" />
</g>
<g transform="matrix(1 0 0 1 -14 16)" >
<linearGradient id="SVGID_UV0t5RLqed3~pVNI22whDf_6" gradientUnits="userSpaceOnUse" gradientTransform="matrix(1 0 0 1 -10 -40)" x1="13.725" y1="43.495" x2="5.747" y2="36.009">
<stop offset="0%" style="stop-color:rgb(153,153,153);stop-opacity: 1"/>
<stop offset="100%" style="stop-color:rgb(255,255,255);stop-opacity: 1"/>
</linearGradient>
<circle style="stroke: none; stroke-width: 1; stroke-dasharray: none; stroke-linecap: butt; stroke-dashoffset: 0; stroke-linejoin: miter; stroke-miterlimit: 4; fill: url(#SVGID_UV0t5RLqed3~pVNI22whDf_6); fill-rule: nonzero; opacity: 1;" cx="0" cy="0" r="3" />
</g>
<g transform="matrix(1 0 0 1 -14 14)" >
<ellipse style="stroke: none; stroke-width: 1; stroke-dasharray: none; stroke-linecap: butt; stroke-dashoffset: 0; stroke-linejoin: miter; stroke-miterlimit: 4; fill: rgb(97,97,97); fill-rule: nonzero; opacity: 1;" cx="0" cy="0" rx="1.172" ry="0.504" />
</g>
<g transform="matrix(1 0 0 1 -14 18.03)" >
<ellipse style="stroke: none; stroke-width: 1; stroke-dasharray: none; stroke-linecap: butt; stroke-dashoffset: 0; stroke-linejoin: miter; stroke-miterlimit: 4; fill: rgb(97,97,97); fill-rule: nonzero; opacity: 1;" cx="0" cy="0" rx="1.172" ry="0.504" />
</g>
<g transform="matrix(1 0 0 1 -16.02 16.01)" >
<ellipse style="stroke: none; stroke-width: 1; stroke-dasharray: none; stroke-linecap: butt; stroke-dashoffset: 0; stroke-linejoin: miter; stroke-miterlimit: 4; fill: rgb(97,97,97); fill-rule: nonzero; opacity: 1;" cx="0" cy="0" rx="0.504" ry="1.172" />
</g>
<g transform="matrix(1 0 0 1 -11.98 16.01)" >
<ellipse style="stroke: none; stroke-width: 1; stroke-dasharray: none; stroke-linecap: butt; stroke-dashoffset: 0; stroke-linejoin: miter; stroke-miterlimit: 4; fill: rgb(97,97,97); fill-rule: nonzero; opacity: 1;" cx="0" cy="0" rx="0.504" ry="1.172" />
</g>
<g transform="matrix(1 0 0 1 13 16)" >
<linearGradient id="SVGID_UV0t5RLqed3~pVNI22whDg_7" gradientUnits="userSpaceOnUse" gradientTransform="matrix(1 0 0 1 -37 -40)" x1="40.725" y1="43.495" x2="32.747" y2="36.009">
<stop offset="0%" style="stop-color:rgb(153,153,153);stop-opacity: 1"/>
<stop offset="100%" style="stop-color:rgb(255,255,255);stop-opacity: 1"/>
</linearGradient>
<circle style="stroke: none; stroke-width: 1; stroke-dasharray: none; stroke-linecap: butt; stroke-dashoffset: 0; stroke-linejoin: miter; stroke-miterlimit: 4; fill: url(#SVGID_UV0t5RLqed3~pVNI22whDg_7); fill-rule: nonzero; opacity: 1;" cx="0" cy="0" r="3" />
</g>
<g transform="matrix(1 0 0 1 13 14)" >
<ellipse style="stroke: none; stroke-width: 1; stroke-dasharray: none; stroke-linecap: butt; stroke-dashoffset: 0; stroke-linejoin: miter; stroke-miterlimit: 4; fill: rgb(97,97,97); fill-rule: nonzero; opacity: 1;" cx="0" cy="0" rx="1.172" ry="0.504" />
</g>
<g transform="matrix(1 0 0 1 13 18.03)" >
<ellipse style="stroke: none; stroke-width: 1; stroke-dasharray: none; stroke-linecap: butt; stroke-dashoffset: 0; stroke-linejoin: miter; stroke-miterlimit: 4; fill: rgb(97,97,97); fill-rule: nonzero; opacity: 1;" cx="0" cy="0" rx="1.172" ry="0.504" />
</g>
<g transform="matrix(1 0 0 1 10.98 16.01)" >
<ellipse style="stroke: none; stroke-width: 1; stroke-dasharray: none; stroke-linecap: butt; stroke-dashoffset: 0; stroke-linejoin: miter; stroke-miterlimit: 4; fill: rgb(97,97,97); fill-rule: nonzero; opacity: 1;" cx="0" cy="0" rx="0.504" ry="1.172" />
</g>
<g transform="matrix(1 0 0 1 15.02 16.01)" >
<ellipse style="stroke: none; stroke-width: 1; stroke-dasharray: none; stroke-linecap: butt; stroke-dashoffset: 0; stroke-linejoin: miter; stroke-miterlimit: 4; fill: rgb(97,97,97); fill-rule: nonzero; opacity: 1;" cx="0" cy="0" rx="0.504" ry="1.172" />
</g>
<g transform="matrix(1 0 0 1 1.5 5.5)" >
<linearGradient id="SVGID_UV0t5RLqed3~pVNI22whDh_8" gradientUnits="userSpaceOnUse" gradientTransform="matrix(1 0 0 1 -25.5 -29.5)" x1="25.5" y1="29.93" x2="25.5" y2="26.75">
<stop offset="0%" style="stop-color:rgb(255,255,255);stop-opacity: 0"/>
<stop offset="100%" style="stop-color:rgb(255,255,255);stop-opacity: 1"/>
</linearGradient>
<rect style="stroke: none; stroke-width: 1; stroke-dasharray: none; stroke-linecap: butt; stroke-dashoffset: 0; stroke-linejoin: miter; stroke-miterlimit: 4; fill: url(#SVGID_UV0t5RLqed3~pVNI22whDh_8); fill-rule: nonzero; opacity: 1;" x="-20.5" y="-0.5" rx="0" ry="0" width="41" height="1" />
</g>
<g transform="matrix(1 0 0 1 21.33 8.5)" >
<path style="stroke: none; stroke-width: 1; stroke-dasharray: none; stroke-linecap: butt; stroke-dashoffset: 0; stroke-linejoin: miter; stroke-miterlimit: 4; fill: rgb(77,77,77); fill-rule: nonzero; opacity: 1;" transform=" translate(-45.33, -32.5)" d="M 45.305 35.375 L 46 35.375 L 46 29.625 L 45.305 29.625 C 44.947 29.625 44.657 29.915 44.657 30.273 L 44.657 34.726 C 44.656 35.085 44.947 35.375 45.305 35.375 z" stroke-linecap="round" />
</g>
<g transform="matrix(1 0 0 1 21.5 7)" >
<path style="stroke: none; stroke-width: 1; stroke-dasharray: none; stroke-linecap: butt; stroke-dashoffset: 0; stroke-linejoin: miter; stroke-miterlimit: 4; fill: rgb(255,69,83); fill-rule: nonzero; opacity: 1;" transform=" translate(-45.5, -31)" d="M 46 32 L 46 30 L 45.406 30 C 45.182 30 45 30.182 45 30.406 L 45 32 L 46 32 z" stroke-linecap="round" />
</g>
<g transform="matrix(1 0 0 1 21.5 10)" >
<path style="stroke: none; stroke-width: 1; stroke-dasharray: none; stroke-linecap: butt; stroke-dashoffset: 0; stroke-linejoin: miter; stroke-miterlimit: 4; fill: rgb(236,154,28); fill-rule: nonzero; opacity: 1;" transform=" translate(-45.5, -34)" d="M 45 33 L 45 34.594 C 45 34.818 45.182 35 45.406 35 L 46 35 L 46 33 L 45 33 z" stroke-linecap="round" />
</g>
<g transform="matrix(1 0 0 1 1.46 -4.49)" >
<linearGradient id="SVGID_UV0t5RLqed3~pVNI22whDi_9" gradientUnits="userSpaceOnUse" gradientTransform="matrix(1 0 0 1 0 0)" x1="25.677" y1="12.141" x2="25.546" y2="20.583">
<stop offset="0%" style="stop-color:rgb(246,131,129);stop-opacity: 1"/>
<stop offset="100%" style="stop-color:rgb(229,30,37);stop-opacity: 1"/>
</linearGradient>
<path style="stroke: none; stroke-width: 1; stroke-dasharray: none; stroke-linecap: butt; stroke-dashoffset: 0; stroke-linejoin: miter; stroke-miterlimit: 4; fill: url(#SVGID_UV0t5RLqed3~pVNI22whDi_9); fill-rule: nonzero; opacity: 1;" transform=" translate(-25.46, -19.51)" d="M 39.933 26.141 L 37.371 15.380999999999998 C 37.113 14.351999999999999 36.124 13.661999999999999 34.862 13.503999999999998 C 27.968000000000004 13.000999999999998 22.812 12.874999999999998 16.878 12.874999999999998 C 15.766 12.874999999999998 14.789 13.616999999999997 14.484 14.692999999999998 L 10.988 26 C 13.281 25.813 36.281 25.781 39.933 26.141 z" stroke-linecap="round" />
</g>
<g transform="matrix(1 0 0 1 -10.22 -3.98)" >
<path style="stroke: none; stroke-width: 1; stroke-dasharray: none; stroke-linecap: butt; stroke-dashoffset: 0; stroke-linejoin: miter; stroke-miterlimit: 4; fill: rgb(54,70,78); fill-rule: nonzero; opacity: 1;" transform=" translate(-13.78, -20.02)" d="M 14.604 14.464 L 11.104 25.584 L 14.292 25.584 C 15.042 25.584 15.499 24.869 15.542 24.355 L 16.459 15.772 C 16.508 15.194 15.836 14.465 15.251 14.465 L 14.604 14.465 z" stroke-linecap="round" />
</g>
<g transform="matrix(1 0 0 1 -10.39 -4)" >
<linearGradient id="SVGID_UV0t5RLqed3~pVNI22whDj_10" gradientUnits="userSpaceOnUse" gradientTransform="matrix(1 0 0 1 0 0)" x1="13.573" y1="16.989" x2="13.646" y2="24.373">
<stop offset="0%" style="stop-color:rgb(91,165,234);stop-opacity: 1"/>
<stop offset="100%" style="stop-color:rgb(49,91,142);stop-opacity: 1"/>
</linearGradient>
<path style="stroke: none; stroke-width: 1; stroke-dasharray: none; stroke-linecap: butt; stroke-dashoffset: 0; stroke-linejoin: miter; stroke-miterlimit: 4; fill: url(#SVGID_UV0t5RLqed3~pVNI22whDj_10); fill-rule: nonzero; opacity: 1;" transform=" translate(-13.61, -20)" d="M 14.433 15 L 11.292 25 L 14.18 25 C 14.644 25 15.03 24.645 15.068 24.182 L 15.919 15.964999999999998 C 15.963 15.446 15.553 15 15.031 15 L 14.433 15 z" stroke-linecap="round" />
</g>
<g transform="matrix(1 0 0 1 -0.45 -3.99)" >
<path style="stroke: none; stroke-width: 1; stroke-dasharray: none; stroke-linecap: butt; stroke-dashoffset: 0; stroke-linejoin: miter; stroke-miterlimit: 4; fill: rgb(54,70,78); fill-rule: nonzero; opacity: 1;" transform=" translate(-23.55, -20.01)" d="M 28.245 14.469 L 19.75 14.469 C 19.188 14.469 18.463 15.024999999999999 18.417 15.573 L 17.521 24.003999999999998 C 17.417 24.932999999999996 18.201 25.552 18.834 25.552 L 28.232999999999997 25.552 C 28.978999999999996 25.552 29.583999999999996 24.953 29.583999999999996 24.213 L 29.583999999999996 15.794 C 29.583 15.062 28.984 14.469 28.245 14.469 z" stroke-linecap="round" />
</g>
<g transform="matrix(1 0 0 1 -0.46 -4)" >
<linearGradient id="SVGID_UV0t5RLqed3~pVNI22whDk_11" gradientUnits="userSpaceOnUse" gradientTransform="matrix(1 0 0 1 0 0)" x1="23.512" y1="16.961" x2="23.586" y2="24.407">
<stop offset="0%" style="stop-color:rgb(91,165,234);stop-opacity: 1"/>
<stop offset="100%" style="stop-color:rgb(49,91,142);stop-opacity: 1"/>
</linearGradient>
<path style="stroke: none; stroke-width: 1; stroke-dasharray: none; stroke-linecap: butt; stroke-dashoffset: 0; stroke-linejoin: miter; stroke-miterlimit: 4; fill: url(#SVGID_UV0t5RLqed3~pVNI22whDk_11); fill-rule: nonzero; opacity: 1;" transform=" translate(-23.54, -20)" d="M 28.023 15 L 19.898 15 C 19.39 15 18.967 15.389 18.925 15.896 L 18.088 23.943 C 18.041 24.512 18.49 25 19.061 25 L 28.023 25 C 28.563 25 29 24.563 29 24.023 L 29 15.975999999999999 C 29 15.437 28.563 15 28.023 15 z" stroke-linecap="round" />
</g>
<g transform="matrix(1 0 0 1 10.5 -3.96)" >
<path style="stroke: none; stroke-width: 1; stroke-dasharray: none; stroke-linecap: butt; stroke-dashoffset: 0; stroke-linejoin: miter; stroke-miterlimit: 4; fill: rgb(54,70,78); fill-rule: nonzero; opacity: 1;" transform=" translate(-34.5, -20.04)" d="M 32.636 14.562 L 34.275000000000006 14.638 C 35.602000000000004 14.685 36.68300000000001 15.715 36.785000000000004 17.032 L 37.584 23.926000000000002 C 37.637 24.612000000000002 36.963 25.521 36.271 25.521 L 32.745000000000005 25.521 C 32.00600000000001 25.521 31.406000000000006 24.925 31.406000000000006 24.19 L 31.406000000000006 15.743000000000002 C 31.406 15.074 31.964 14.539 32.636 14.562 z" stroke-linecap="round" />
</g>
<g transform="matrix(1 0 0 1 10.46 -3.94)" >
<linearGradient id="SVGID_UV0t5RLqed3~pVNI22whDl_12" gradientUnits="userSpaceOnUse" gradientTransform="matrix(-1 0 0 1 872 0)" x1="837.508" y1="17.097" x2="837.581" y2="24.39">
<stop offset="0%" style="stop-color:rgb(91,165,234);stop-opacity: 1"/>
<stop offset="100%" style="stop-color:rgb(49,91,142);stop-opacity: 1"/>
</linearGradient>
<path style="stroke: none; stroke-width: 1; stroke-dasharray: none; stroke-linecap: butt; stroke-dashoffset: 0; stroke-linejoin: miter; stroke-miterlimit: 4; fill: url(#SVGID_UV0t5RLqed3~pVNI22whDl_12); fill-rule: nonzero; opacity: 1;" transform=" translate(-34.46, -20.06)" d="M 32.968 15.125 L 34.259 15.185 C 35.304 15.222000000000001 36.155 16.038 36.235 17.080000000000002 L 36.922 23.992 C 36.964 24.536 36.535 25 35.99 25 L 32.935 25 C 32.419 25 32 24.581 32 24.065 L 32 16.06 C 32 15.53 32.439 15.106 32.968 15.125 z" stroke-linecap="round" />
</g>
<g transform="matrix(1 0 0 1 -9.06 -4.57)" >
<linearGradient id="SVGID_UV0t5RLqed3~pVNI22whDm_13" gradientUnits="userSpaceOnUse" gradientTransform="matrix(1 0 0 1 0 0)" x1="15.288" y1="19.536" x2="9.328" y2="17.799">
<stop offset="0%" style="stop-color:rgb(255,255,255);stop-opacity: 0"/>
<stop offset="100%" style="stop-color:rgb(255,255,255);stop-opacity: 1"/>
</linearGradient>
<path style="stroke: none; stroke-width: 1; stroke-dasharray: none; stroke-linecap: butt; stroke-dashoffset: 0; stroke-linejoin: miter; stroke-miterlimit: 4; fill: url(#SVGID_UV0t5RLqed3~pVNI22whDm_13); fill-rule: nonzero; opacity: 1;" transform=" translate(-14.94, -19.43)" d="M 18.89 12.881 C 18.226 12.877 17.558 12.875 16.878 12.875 C 15.766 12.875 14.789 13.617 14.484 14.693 L 10.988 25.988 L 16.153 25.894 L 18.89 12.881 z" stroke-linecap="round" />
</g>
<g transform="matrix(1 0 0 1 -6.5 1)" >
<linearGradient id="SVGID_UV0t5RLqed3~pVNI22whDn_14" gradientUnits="userSpaceOnUse" gradientTransform="matrix(1 0 0 1 0 0)" x1="16.378" y1="24.326" x2="18.408" y2="25.102">
<stop offset="0%" style="stop-color:rgb(246,131,129);stop-opacity: 1"/>
<stop offset="100%" style="stop-color:rgb(229,30,37);stop-opacity: 1"/>
</linearGradient>
<path style="stroke: none; stroke-width: 1; stroke-dasharray: none; stroke-linecap: butt; stroke-dashoffset: 0; stroke-linejoin: miter; stroke-miterlimit: 4; fill: url(#SVGID_UV0t5RLqed3~pVNI22whDn_14); fill-rule: nonzero; opacity: 1;" transform=" translate(-17.5, -25)" d="M 18 27 L 18.573 27 C 18.809 27 19 26.809 19 26.573 L 19 23.427 C 19 23.191 18.809 23 18.573 23 L 18 23 C 16.895 23 16 23.895 16 25 L 16 25 C 16 26.105 16.895 27 18 27 z" stroke-linecap="round" />
</g>
<g transform="matrix(1 0 0 1 -0.5 15)" >
<linearGradient id="SVGID_UV0t5RLqed3~pVNI22whDo_15" gradientUnits="userSpaceOnUse" gradientTransform="matrix(1 0 0 1 0 0)" x1="23.5" y1="38.688" x2="23.5" y2="42.595">
<stop offset="0%" style="stop-color:rgb(173,31,25);stop-opacity: 0"/>
<stop offset="100%" style="stop-color:rgb(162,23,19);stop-opacity: 1"/>
</linearGradient>
<path style="stroke: none; stroke-width: 1; stroke-dasharray: none; stroke-linecap: butt; stroke-dashoffset: 0; stroke-linejoin: miter; stroke-miterlimit: 4; fill: url(#SVGID_UV0t5RLqed3~pVNI22whDo_15); fill-rule: nonzero; opacity: 1;" transform=" translate(-23.5, -39)" d="M 32.537 36 L 14.463 36 C 15.416 37.062 16 38.461 16 40 C 16 40.702 15.873 41.374 15.651 42 L 31.349 42 C 31.127 41.374 31 40.702 31 40 C 31 38.461 31.584 37.062 32.537 36 z" stroke-linecap="round" />
</g>
<g transform="matrix(1 0 0 1 -20.73 15)" >
<linearGradient id="SVGID_UV0t5RLqed3~pVNI22whDp_16" gradientUnits="userSpaceOnUse" gradientTransform="matrix(1 0 0 1 0 0)" x1="3.268" y1="38.688" x2="3.268" y2="42.595">
<stop offset="0%" style="stop-color:rgb(173,31,25);stop-opacity: 0"/>
<stop offset="100%" style="stop-color:rgb(162,23,19);stop-opacity: 1"/>
</linearGradient>
<path style="stroke: none; stroke-width: 1; stroke-dasharray: none; stroke-linecap: butt; stroke-dashoffset: 0; stroke-linejoin: miter; stroke-miterlimit: 4; fill: url(#SVGID_UV0t5RLqed3~pVNI22whDp_16); fill-rule: nonzero; opacity: 1;" transform=" translate(-3.27, -39)" d="M 5.537 36 L 2 36 L 2 37.058 C 1.432 37.191 1 37.677 1 38.286 L 1 40.715 C 1 41.324000000000005 1.432 41.81 2 41.943000000000005 L 2 42 L 2.286 42 L 4 42 L 4.349 42 C 4.127 41.374 4 40.702 4 40 C 4 38.461 4.584 37.062 5.537 36 z" stroke-linecap="round" />
</g>
<g transform="matrix(1 0 0 1 20.23 15)" >
<linearGradient id="SVGID_UV0t5RLqed3~pVNI22whDq_17" gradientUnits="userSpaceOnUse" gradientTransform="matrix(1 0 0 1 0 0)" x1="44.232" y1="38.688" x2="44.232" y2="42.595">
<stop offset="0%" style="stop-color:rgb(173,31,25);stop-opacity: 0"/>
<stop offset="100%" style="stop-color:rgb(162,23,19);stop-opacity: 1"/>
</linearGradient>
<path style="stroke: none; stroke-width: 1; stroke-dasharray: none; stroke-linecap: butt; stroke-dashoffset: 0; stroke-linejoin: miter; stroke-miterlimit: 4; fill: url(#SVGID_UV0t5RLqed3~pVNI22whDq_17); fill-rule: nonzero; opacity: 1;" transform=" translate(-44.23, -39)" d="M 46 37.058 L 46 36 L 41.463 36 C 42.416 37.062 43 38.461 43 40 C 43 40.702 42.873 41.374 42.651 42 L 43 42 L 44.714 42 C 45.388 42 46.612 41.659 46.753 40.729 L 47 38.286 C 47 37.677 46.568 37.191 46 37.058 z" stroke-linecap="round" />
</g>
<g transform="matrix(1 0 0 1 13 13.5)" >
<linearGradient id="SVGID_UV0t5RLqed3~pVNI22whDr_18" gradientUnits="userSpaceOnUse" gradientTransform="matrix(1 0 0 1 0 0)" x1="37" y1="33.458" x2="37" y2="38.069">
<stop offset="0%" style="stop-color:rgb(247,143,143);stop-opacity: 1"/>
<stop offset="100%" style="stop-color:rgb(209,29,31);stop-opacity: 1"/>
</linearGradient>
<path style="stroke: none; stroke-width: 1; stroke-dasharray: none; stroke-linecap: butt; stroke-dashoffset: 0; stroke-linejoin: miter; stroke-miterlimit: 4; fill: url(#SVGID_UV0t5RLqed3~pVNI22whDr_18); fill-rule: nonzero; opacity: 1;" transform=" translate(-37, -37.5)" d="M 31.349 42 C 31.127 41.374 31 40.702 31 40 C 31 36.686 33.686 34 37 34 C 40.314 34 43 36.686 43 40 C 43 40.702 42.873 41.374 42.651 42 L 43.706 42 C 43.895 41.366 44 40.695 44 40 C 44 36.134 40.866 33 37 33 C 33.134 33 30 36.134 30 40 C 30 40.695 30.105 41.366 30.294 42 L 31.349 42 z" stroke-linecap="round" />
</g>
<g transform="matrix(1 0 0 1 -14 13.5)" >
<linearGradient id="SVGID_UV0t5RLqed3~pVNI22whDs_19" gradientUnits="userSpaceOnUse" gradientTransform="matrix(1 0 0 1 0 0)" x1="10" y1="33.458" x2="10" y2="38.566">
<stop offset="0%" style="stop-color:rgb(247,143,143);stop-opacity: 1"/>
<stop offset="100%" style="stop-color:rgb(209,29,31);stop-opacity: 1"/>
</linearGradient>
<path style="stroke: none; stroke-width: 1; stroke-dasharray: none; stroke-linecap: butt; stroke-dashoffset: 0; stroke-linejoin: miter; stroke-miterlimit: 4; fill: url(#SVGID_UV0t5RLqed3~pVNI22whDs_19); fill-rule: nonzero; opacity: 1;" transform=" translate(-10, -37.5)" d="M 4.349 42 C 4.127 41.374 4 40.702 4 40 C 4 36.686 6.686 34 10 34 C 13.314 34 16 36.686 16 40 C 16 40.702 15.873 41.374 15.651 42 L 16.706 42 C 16.895 41.366 17 40.695 17 40 C 17 36.134 13.866 33 10 33 C 6.134 33 3 36.134 3 40 C 3 40.695 3.105 41.366 3.294 42 L 4.349 42 z" stroke-linecap="round" />
</g>
<g transform="matrix(1 0 0 1 -19.66 7.19)" >
<path style="stroke: none; stroke-width: 1; stroke-dasharray: none; stroke-linecap: butt; stroke-dashoffset: 0; stroke-linejoin: miter; stroke-miterlimit: 4; fill: rgb(77,77,77); fill-rule: nonzero; opacity: 1;" transform=" translate(-4.34, -31.19)" d="M 5.635 28.706 C 5.072 28.753999999999998 4.662 28.797 4.358 28.835 C 3.816 29.364 3.3709999999999996 30.009 3.0119999999999996 30.661 C 2.502 31.700000000000003 2.2129999999999996 32.671 2.0889999999999995 33.421 C 2.0759999999999996 33.506 2.0679999999999996 33.594 2.0559999999999996 33.68 C 2.6049999999999995 33.424 3.0029999999999997 33.17 3.6029999999999998 32.989 C 5.01 32.565999999999995 5.654 31.932999999999996 6.279 30.766999999999996 C 7.157 29.13 6.083 28.668 5.635 28.706 z" stroke-linecap="round" />
</g>
<g transform="matrix(1 0 0 1 -19.9 7.1)" >
<linearGradient id="SVGID_UV0t5RLqed3~pVNI22whDt_20" gradientUnits="userSpaceOnUse" gradientTransform="matrix(1 0 0 1 0 0)" x1="2.731" y1="30.657" x2="4.095" y2="31.205">
<stop offset="0%" style="stop-color:rgb(255,255,255);stop-opacity: 1"/>
<stop offset="100%" style="stop-color:rgb(144,164,174);stop-opacity: 1"/>
</linearGradient>
<path style="stroke: none; stroke-width: 1; stroke-dasharray: none; stroke-linecap: butt; stroke-dashoffset: 0; stroke-linejoin: miter; stroke-miterlimit: 4; fill: url(#SVGID_UV0t5RLqed3~pVNI22whDt_20); fill-rule: nonzero; opacity: 1;" transform=" translate(-4.1, -31.1)" d="M 5.36 29.078 C 4.597 29.145 4.2 29.201 3.987 29.242 C 3.7030000000000003 29.554000000000002 3.452 29.888 3.2270000000000003 30.239 C 3.2110000000000003 30.265 3.196 30.292 3.1790000000000003 30.318 C 2.963 30.667 2.7720000000000002 31.032 2.615 31.42 C 2.5780000000000003 31.519000000000002 2.5410000000000004 31.619000000000003 2.5060000000000002 31.722 C 2.4800000000000004 31.795 2.4560000000000004 31.87 2.4320000000000004 31.945 C 2.4110000000000005 32.008 2.3880000000000003 32.07 2.369 32.134 C 2.277 32.452 2.1950000000000003 32.78 2.1310000000000002 33.126 C 2.8870000000000005 32.754 3.115 32.660999999999994 3.7350000000000003 32.461999999999996 C 4.641 32.172 5.327 31.560999999999996 5.803000000000001 30.640999999999995 C 6.473 29.351 5.701 29.048 5.36 29.078 z" stroke-linecap="round" />
</g>
<g transform="matrix(1 0 0 1 -19.15 6.78)" >
<path style="stroke: none; stroke-width: 1; stroke-dasharray: none; stroke-linecap: butt; stroke-dashoffset: 0; stroke-linejoin: miter; stroke-miterlimit: 4; fill: rgb(236,154,28); fill-rule: nonzero; opacity: 1;" transform=" translate(-4.85, -30.78)" d="M 5.36 29.078 C 5.181 29.093999999999998 5.0280000000000005 29.108999999999998 4.886 29.123 C 4.571 29.702 3.9400000000000004 31.003 3.641 32.493 C 3.675 32.482 3.7 32.473 3.737 32.461000000000006 C 4.643 32.17100000000001 5.329000000000001 31.560000000000006 5.805 30.640000000000004 C 6.473 29.351 5.701 29.048 5.36 29.078 z" stroke-linecap="round" />
</g>
</g>
</g>
</svg>
